<mxfile host="app.diagrams.net" agent="Mozilla/5.0 (Windows NT 10.0; Win64; x64; rv:133.0) Gecko/20100101 Firefox/133.0" version="25.0.3">
  <diagram name="Página-1" id="Jwy_6U4uCa5_5bFFhxBh">
    <mxGraphModel dx="999" dy="530" grid="1" gridSize="10" guides="1" tooltips="1" connect="1" arrows="1" fold="1" page="1" pageScale="1" pageWidth="850" pageHeight="1100" math="0" shadow="0">
      <root>
        <mxCell id="0" />
        <mxCell id="1" parent="0" />
        <mxCell id="2EAsavLQrk4jtRzOWCvj-1" value="&#xa;&#xa;  &#xa;&#xa;    &#xa;&#xa;      &#xa;&#xa;        &#xa;&#xa;        &#xa;&#xa;        &#xa;&#xa;        &#xa;&#xa;          &#xa;&#xa;        &#xa;&#xa;        &#xa;&#xa;        &#xa;&#xa;          &#xa;&#xa;        &#xa;&#xa;        &#xa;&#xa;        &#xa;&#xa;          &#xa;&#xa;        &#xa;&#xa;        &#xa;&#xa;        &#xa;&#xa;          &#xa;&#xa;        &#xa;&#xa;        &#xa;&#xa;        &#xa;&#xa;          &#xa;&#xa;        &#xa;&#xa;        &#xa;&#xa;        &#xa;&#xa;          &#xa;&#xa;        &#xa;&#xa;        &#xa;&#xa;          &#xa;&#xa;        &#xa;&#xa;        &#xa;&#xa;          &#xa;&#xa;        &#xa;&#xa;      &#xa;&#xa;    &#xa;&#xa;  &#xa;&#xa;&#xa;&#xa;&quot;&quot;&quot;" style="text;whiteSpace=wrap;html=1;" vertex="1" parent="1">
          <mxGeometry width="50" height="1190" as="geometry" />
        </mxCell>
        <mxCell id="2EAsavLQrk4jtRzOWCvj-3" value="Gestión de Proyecto - Sistema de Biblioteca" style="text;html=1;strokeColor=none;fillColor=none;align=center;verticalAlign=middle;fontSize=18;fontStyle=1;" vertex="1" parent="1">
          <mxGeometry x="150" y="10" width="500" height="40" as="geometry" />
        </mxCell>
        <mxCell id="2EAsavLQrk4jtRzOWCvj-4" value="Análisis&#xa;Responsable: Analista" style="ellipse;whiteSpace=wrap;html=1;fillColor=#dae8fc;" vertex="1" parent="1">
          <mxGeometry x="100" y="100" width="200" height="100" as="geometry" />
        </mxCell>
        <mxCell id="2EAsavLQrk4jtRzOWCvj-5" value="Diseño&#xa;Responsable: Diseñador" style="ellipse;whiteSpace=wrap;html=1;fillColor=#f8cecc;" vertex="1" parent="1">
          <mxGeometry x="400" y="100" width="200" height="100" as="geometry" />
        </mxCell>
        <mxCell id="2EAsavLQrk4jtRzOWCvj-6" value="Desarrollo&#xa;Responsable: Programador" style="ellipse;whiteSpace=wrap;html=1;fillColor=#d5e8d4;" vertex="1" parent="1">
          <mxGeometry x="100" y="300" width="200" height="100" as="geometry" />
        </mxCell>
        <mxCell id="2EAsavLQrk4jtRzOWCvj-7" value="Pruebas&#xa;Responsable: Tester" style="ellipse;whiteSpace=wrap;html=1;fillColor=#fff2cc;" vertex="1" parent="1">
          <mxGeometry x="400" y="300" width="200" height="100" as="geometry" />
        </mxCell>
        <mxCell id="2EAsavLQrk4jtRzOWCvj-8" edge="1" parent="1" source="2EAsavLQrk4jtRzOWCvj-4" target="2EAsavLQrk4jtRzOWCvj-5">
          <mxGeometry relative="1" as="geometry" />
        </mxCell>
        <mxCell id="2EAsavLQrk4jtRzOWCvj-9" edge="1" parent="1" source="2EAsavLQrk4jtRzOWCvj-5" target="2EAsavLQrk4jtRzOWCvj-6">
          <mxGeometry relative="1" as="geometry" />
        </mxCell>
        <mxCell id="2EAsavLQrk4jtRzOWCvj-10" edge="1" parent="1" source="2EAsavLQrk4jtRzOWCvj-6" target="2EAsavLQrk4jtRzOWCvj-7">
          <mxGeometry relative="1" as="geometry" />
        </mxCell>
      </root>
    </mxGraphModel>
  </diagram>
</mxfile>
